<?xml version="1.0" encoding="UTF-8"?>
<svg id="Layer_1" data-name="Layer 1" xmlns="http://www.w3.org/2000/svg" viewBox="0 0 379.12 673.14">
  <defs>
    <style>
      .cls-1, .cls-2, .cls-3, .cls-4 {
        stroke: #000;
        stroke-miterlimit: 10;
      }

      .cls-2 {
        fill: #bf4141;
      }

      .cls-3 {
        fill: #d9d9d9;
      }

      .cls-5 {
        fill: #0a401e;
      }

      .cls-5, .cls-6, .cls-7 {
        stroke-width: 0px;
      }

      .cls-6 {
        fill: #fff;
      }

      .cls-4 {
        fill: #038c3e;
      }

      .cls-7 {
        fill: #f2f2f2;
      }
    </style>
  </defs>
  <ellipse class="cls-4" cx="312.04" cy="148.64" rx="25.32" ry="22.72"/>
  <ellipse class="cls-4" cx="325.72" cy="170.85" rx="25.32" ry="22.72"/>
  <path class="cls-2" d="m378.41,284.67c-24.06,30.25-57.02,44.6-83.29,55.8-18.16,7.74-64.58,26.85-122.58,17.67-30.72-4.86-53.31-15.85-68-23-23.73-11.55-46.5-22.62-66.98-46.29C28.68,278.58,1.46,246.3.54,197.64c-.2-10.4-1.07-56.59,32.95-91.65,27.08-27.9,61.8-33.85,71.05-33.85,5.48,0,10.92.68,10.92.68,6.42.81,12.67,2.32,18.7,4.48,3.1-4.38,6.44-8.46,10-12.22,2.24-2.38,4.56-4.62,6.96-6.72,11.66-10.24,25.14-17.22,39.67-19.94,4.49-.84,9.08-1.28,13.75-1.28s9.04.42,13.43,1.23c12.71,2.32,24.63,7.9,35.24,16.08,1.48,1.13,2.93,2.32,4.35,3.55,5.04,4.38,9.75,9.36,14.06,14.87,19.12-6.03,38.7-7.56,57.23-4.06-.85,3.46-1.31,7.09-1.31,10.83,0,14.12,6.49,26.66,16.56,34.62-6.32,7.8-11.67,16.77-15.7,26.72-19.42,47.94-.93,100.68,41.3,117.78,1.78.72,3.58,1.37,5.39,1.94-1.92,2.82-3.05,6.35-3.05,10.19,0,5.72,2.52,10.76,6.37,13.78Z"/>
  <g>
    <path class="cls-5" d="m276.71,171.2c-.96,0-1.85-.56-2.26-1.44-6.5-13.89-14.75-23.03-24.54-27.17-4.62-1.96-8.87-2.54-13.37-3.16-6.25-.86-12.72-1.75-20.68-6.23-5.81-3.28-11.07-7.74-15.65-13.28-5.82,5.97-8.73,14.53-7.66,22.93,1.64,12.97,11.88,18.71,13.04,19.32.96.51,1.49,1.58,1.3,2.64s-1.04,1.9-2.12,2.04c-.76.1-2.34.28-4.42.28-5.84,0-16.88-1.39-25.23-10.74-5.5-6.16-8.56-13.71-8.84-21.85-.24-6.96,1.62-12.73,3.56-16.79-4.35.43-8.69,1.19-12.95,2.26-4.78,1.21-7.91,2.43-10.43,3.42-2.43.95-4.52,1.77-7.02,2.14-.92.14-1.86.21-2.8.21-9.06,0-18.96-6.48-29.42-19.27-.79-.96-.75-2.35.09-3.27.49-.54,1.17-.82,1.85-.82.48,0,.97.14,1.4.43,3.61,2.43,11.13,6.52,20.97,6.52,2.54,0,5.1-.28,7.61-.84,7.53-1.68,13.29-5.48,17.23-8.97-6.25-4.4-15.27-12.62-20.67-25.93-10.6-26.14.91-51.15,3.33-55.9.43-.85,1.3-1.37,2.23-1.37.19,0,.38.02.57.07,1.12.26,1.92,1.26,1.93,2.41.11,14.37,3.48,28.12,9.77,39.76,2.61,4.84,7.47,13.84,17.3,20.94,4.18,3.02,8.77,5.36,13.66,6.97,5.14-10.26,10.89-25.97,11.22-45.37.21-12.09-1.68-23.97-5.62-35.33-.31-.88-.1-1.86.55-2.54.48-.51,1.14-.78,1.82-.78.23,0,.46.03.69.1l40.97,11.73c.67.19,1.22.65,1.54,1.27.31.62.36,1.34.12,1.99l-26.8,73.31c8.86-1.32,17.39-4.06,25.41-8.17,20.3-10.4,32.45-26.95,39.06-38.99.45-.81,1.29-1.3,2.19-1.3.19,0,.38.02.56.06,1.09.25,1.88,1.2,1.93,2.32.37,8.02-.35,28.66-15.06,46.99-6.53,8.14-13.91,13.4-20.59,16.8,15.92,1.97,29.19,11.15,35.49,24.93,6.71,14.69,3.05,30.01,1.16,35.91-.31.98-1.19,1.67-2.22,1.73-.05,0-.11,0-.16,0Z"/>
    <path class="cls-6" d="m192.42,5c13.66,3.91,27.31,7.82,40.97,11.73-9.4,25.72-18.81,51.43-28.21,77.15,7.7-.76,18.54-2.9,30.31-8.92,23.15-11.86,35.37-31.37,40.11-40.01.21,4.47.78,26.26-14.51,45.3-12.3,15.32-27.64,19.88-34.1,21.25-.64.11-1.28.24-1.93.37.5-.09,1.15-.21,1.93-.37,3.03-.53,6.03-.78,8.96-.78,17.64,0,33.02,9.22,39.71,23.87,6.73,14.73,2.39,29.93,1.05,34.11-8.35-17.84-18.1-25.14-25.83-28.41-11.41-4.83-20.52-1.78-33.8-9.27-7.88-4.44-13.24-10.34-16.6-14.77-7.7,6.49-11.71,16.79-10.43,26.92,1.82,14.35,13.3,20.66,14.35,21.22-.52.07-2,.26-4.08.26-5.64,0-15.72-1.35-23.37-9.91-1.7-1.9-7.82-8.97-8.21-20.27-.35-10.02,4.02-17.25,5.52-19.52-4.11.18-10.46.75-18.02,2.66-9.5,2.4-12.59,4.83-17.2,5.51-.77.11-1.58.18-2.44.18-6.41,0-15.44-3.64-27.48-18.36,2.3,1.55,10.78,6.95,22.37,6.95,2.57,0,5.3-.27,8.15-.9,10.69-2.38,17.72-8.74,20.68-11.76-4.72-2.93-16.01-10.9-22.34-26.52-10.49-25.88,1.6-50.61,3.24-53.83.07,9.07,1.44,24.94,10.07,40.93,2.96,5.48,7.95,14.5,18.04,21.78,6.23,4.5,12.21,6.76,16.39,7.95,4.42-8.4,12.07-25.56,12.46-48.34.27-15.7-3.01-28.25-5.76-36.2m0-5c-1.35,0-2.67.55-3.63,1.56-1.28,1.36-1.7,3.31-1.09,5.08,3.84,11.08,5.69,22.68,5.49,34.47-.3,17.73-5.24,32.31-9.99,42.31-3.89-1.48-7.55-3.46-10.93-5.9-9.37-6.77-13.87-15.12-16.57-20.1-6.09-11.29-9.36-24.63-9.47-38.59-.02-2.31-1.61-4.3-3.85-4.83-.38-.09-.77-.13-1.15-.13-1.85,0-3.59,1.03-4.46,2.73-2.5,4.92-14.42,30.83-3.41,57.97,4.91,12.11,12.7,20.18,18.93,25.09-3.5,2.64-8.08,5.18-13.71,6.44-2.33.52-4.7.78-7.06.78-9.52,0-16.86-4.26-19.58-6.09-.85-.58-1.83-.86-2.79-.86-1.37,0-2.72.56-3.7,1.63-1.67,1.83-1.75,4.61-.18,6.53,11.11,13.59,21.37,20.19,31.35,20.19,1.06,0,2.12-.08,3.16-.23,2.78-.41,5-1.28,7.57-2.28,2.58-1.01,5.5-2.15,10.13-3.32,2.77-.7,5.58-1.26,8.4-1.68-1.33,3.83-2.31,8.52-2.12,13.87.3,8.73,3.58,16.84,9.48,23.43,9,10.07,20.84,11.57,27.1,11.57,2.13,0,3.77-.17,4.77-.3,2.15-.3,3.87-1.95,4.24-4.09.37-2.14-.68-4.28-2.6-5.29-.42-.22-10.21-5.5-11.72-17.42-.85-6.73,1.09-13.57,5.17-18.81,4.31,4.77,9.15,8.67,14.44,11.65,8.38,4.72,15.39,5.68,21.57,6.53,4.33.59,8.43,1.16,12.74,2.98,9.2,3.89,17.02,12.62,23.25,25.93.83,1.77,2.6,2.88,4.53,2.88.11,0,.21,0,.32-.01,2.05-.13,3.82-1.51,4.44-3.47,1.98-6.18,5.82-22.23-1.26-37.72-3.7-8.11-9.83-14.9-17.73-19.64-4.01-2.41-8.39-4.23-13-5.44,5.22-3.39,10.59-7.94,15.5-14.06,15.24-18.98,15.99-40.36,15.6-48.67-.1-2.24-1.68-4.13-3.86-4.64-.38-.09-.76-.13-1.13-.13-1.79,0-3.49.97-4.38,2.59-6.45,11.74-18.27,27.86-38.01,37.97-6.5,3.33-13.35,5.73-20.44,7.18l25.31-69.24c.48-1.3.39-2.75-.24-3.98-.63-1.24-1.75-2.16-3.08-2.54L193.8.19c-.45-.13-.92-.19-1.38-.19h0Z"/>
  </g>
  <path class="cls-7" d="m62.75,118.14c-6.85-1.39-52.31,45.43-41.51,99.47,5.83,29.19,28.02,60.2,41.51,58.99,11.54-1.03,18.66-25.8,15.57-46.27-2.51-16.59-10.54-22.41-17.3-37.01-18.87-40.8,7.41-74.03,1.73-75.18Z"/>
  <ellipse class="cls-4" cx="332.21" cy="201.7" rx="38.06" ry="31" transform="translate(-55.63 176.56) rotate(-27.56)"/>
  <ellipse class="cls-3" cx="339.53" cy="182.75" rx="10.3" ry="8.39" transform="translate(-38.41 106.34) rotate(-16.86)"/>
  <ellipse class="cls-3" cx="350.38" cy="207.55" rx="10.3" ry="8.39" transform="translate(-55.56 240.09) rotate(-35.22)"/>
  <ellipse class="cls-1" cx="340.67" cy="187.33" rx="2.56" ry="1.11" transform="translate(-39.69 106.87) rotate(-16.86)"/>
  <ellipse class="cls-1" cx="347.38" cy="203.55" rx="2.56" ry="1.11" transform="translate(-54.65 181.68) rotate(-27.26)"/>
  <ellipse class="cls-1" cx="309.68" cy="221.77" rx="1.64" ry=".7" transform="translate(-67.18 166.44) rotate(-27.26)"/>
  <ellipse class="cls-1" cx="304.49" cy="214.61" rx="1.64" ry=".7" transform="translate(-64.47 163.27) rotate(-27.26)"/>
</svg>